<svg xmlns="http://www.w3.org/2000/svg" xmlns:xlink="http://www.w3.org/1999/xlink" width="410" zoomAndPan="magnify" viewBox="0 0 307.5 140.249994" height="187" preserveAspectRatio="xMidYMid meet" version="1.0"><defs><g/><clipPath id="6f7b4929cb"><path d="M 0.570312 0 L 306.433594 0 L 306.433594 139.503906 L 0.570312 139.503906 Z M 0.570312 0 " clip-rule="nonzero"/></clipPath><clipPath id="8ab4965783"><path d="M 0.582031 6.007812 L 306.433594 6.007812 L 306.433594 131.335938 L 0.582031 131.335938 Z M 0.582031 6.007812 " clip-rule="nonzero"/></clipPath><clipPath id="86ad991af6"><path d="M 17.738281 6.007812 L 289.265625 6.007812 C 298.742188 6.007812 306.421875 13.6875 306.421875 23.164062 L 306.421875 114.050781 C 306.421875 123.527344 298.742188 131.207031 289.265625 131.207031 L 17.738281 131.207031 C 8.261719 131.207031 0.582031 123.527344 0.582031 114.050781 L 0.582031 23.164062 C 0.582031 13.6875 8.261719 6.007812 17.738281 6.007812 Z M 17.738281 6.007812 " clip-rule="nonzero"/></clipPath><clipPath id="b0c88412bb"><path d="M 35.648438 111.082031 L 268.882812 111.082031 L 268.882812 133.496094 L 35.648438 133.496094 Z M 35.648438 111.082031 " clip-rule="nonzero"/></clipPath></defs><g clip-path="url(#6f7b4929cb)"><path fill="#ffffff" d="M 0.570312 0 L 306.433594 0 L 306.433594 139.503906 L 0.570312 139.503906 Z M 0.570312 0 " fill-opacity="1" fill-rule="nonzero"/><path fill="#fefeff" d="M 0.570312 0 L 306.433594 0 L 306.433594 139.503906 L 0.570312 139.503906 Z M 0.570312 0 " fill-opacity="1" fill-rule="nonzero"/></g><g clip-path="url(#8ab4965783)"><g clip-path="url(#86ad991af6)"><path stroke-linecap="butt" transform="matrix(0.746011, 0, 0, 0.746011, 0.58072, 6.007323)" fill="none" stroke-linejoin="miter" d="M 22.999085 0.000655826 L 386.971598 0.000655826 C 399.674585 0.000655826 409.968926 10.294997 409.968926 22.997984 L 409.968926 144.82832 C 409.968926 157.531306 399.674585 167.825648 386.971598 167.825648 L 22.999085 167.825648 C 10.296098 167.825648 0.00175713 157.531306 0.00175713 144.82832 L 0.00175713 22.997984 C 0.00175713 10.294997 10.296098 0.000655826 22.999085 0.000655826 Z M 22.999085 0.000655826 " stroke="#046cf2" stroke-width="42" stroke-opacity="1" stroke-miterlimit="4"/></g></g><g clip-path="url(#b0c88412bb)"><path fill="#ffffff" d="M 35.648438 111.082031 L 268.917969 111.082031 L 268.917969 133.496094 L 35.648438 133.496094 Z M 35.648438 111.082031 " fill-opacity="1" fill-rule="nonzero"/></g><g fill="#231f20" fill-opacity="1"><g transform="translate(40.172561, 126.782863)"><g><path d="M 5.5 -9.984375 C 6.382812 -9.984375 7.148438 -9.832031 7.796875 -9.53125 C 8.453125 -9.238281 8.957031 -8.820312 9.3125 -8.28125 C 9.664062 -7.738281 9.84375 -7.097656 9.84375 -6.359375 C 9.84375 -5.628906 9.664062 -4.988281 9.3125 -4.4375 C 8.957031 -3.894531 8.453125 -3.476562 7.796875 -3.1875 C 7.148438 -2.894531 6.382812 -2.75 5.5 -2.75 L 3.5 -2.75 L 3.5 0 L 1.1875 0 L 1.1875 -9.984375 Z M 5.375 -4.640625 C 6.070312 -4.640625 6.597656 -4.785156 6.953125 -5.078125 C 7.316406 -5.378906 7.5 -5.804688 7.5 -6.359375 C 7.5 -6.921875 7.316406 -7.351562 6.953125 -7.65625 C 6.597656 -7.957031 6.070312 -8.109375 5.375 -8.109375 L 3.5 -8.109375 L 3.5 -4.640625 Z M 5.375 -4.640625 "/></g></g></g><g fill="#231f20" fill-opacity="1"><g transform="translate(51.752253, 126.782863)"><g><path d="M 7.765625 -2.140625 L 3.125 -2.140625 L 2.234375 0 L -0.125 0 L 4.328125 -9.984375 L 6.609375 -9.984375 L 11.0625 0 L 8.640625 0 Z M 7.03125 -3.890625 L 5.453125 -7.71875 L 3.859375 -3.890625 Z M 7.03125 -3.890625 "/></g></g></g><g fill="#231f20" fill-opacity="1"><g transform="translate(63.816811, 126.782863)"><g><path d="M 1.1875 -9.984375 L 3.5 -9.984375 L 3.5 0 L 1.1875 0 Z M 1.1875 -9.984375 "/></g></g></g><g fill="#231f20" fill-opacity="1"><g transform="translate(69.635187, 126.782863)"><g><path d="M 10.34375 -9.984375 L 10.34375 0 L 8.4375 0 L 3.46875 -6.0625 L 3.46875 0 L 1.1875 0 L 1.1875 -9.984375 L 3.09375 -9.984375 L 8.0625 -3.921875 L 8.0625 -9.984375 Z M 10.34375 -9.984375 "/></g></g></g><g fill="#231f20" fill-opacity="1"><g transform="translate(82.298706, 126.782863)"><g><path d="M 3.25 -8.109375 L 0.0625 -8.109375 L 0.0625 -9.984375 L 8.765625 -9.984375 L 8.765625 -8.109375 L 5.5625 -8.109375 L 5.5625 0 L 3.25 0 Z M 3.25 -8.109375 "/></g></g></g><g fill="#231f20" fill-opacity="1"><g transform="translate(92.252672, 126.782863)"><g><path d="M 1.1875 -9.984375 L 3.5 -9.984375 L 3.5 0 L 1.1875 0 Z M 1.1875 -9.984375 "/></g></g></g><g fill="#231f20" fill-opacity="1"><g transform="translate(98.071045, 126.782863)"><g><path d="M 10.34375 -9.984375 L 10.34375 0 L 8.4375 0 L 3.46875 -6.0625 L 3.46875 0 L 1.1875 0 L 1.1875 -9.984375 L 3.09375 -9.984375 L 8.0625 -3.921875 L 8.0625 -9.984375 Z M 10.34375 -9.984375 "/></g></g></g><g fill="#231f20" fill-opacity="1"><g transform="translate(110.734564, 126.782863)"><g><path d="M 7.9375 -5.15625 L 10.046875 -5.15625 L 10.046875 -1.09375 C 9.503906 -0.6875 8.875 -0.375 8.15625 -0.15625 C 7.445312 0.0625 6.726562 0.171875 6 0.171875 C 4.96875 0.171875 4.035156 -0.046875 3.203125 -0.484375 C 2.378906 -0.929688 1.734375 -1.546875 1.265625 -2.328125 C 0.796875 -3.117188 0.5625 -4.007812 0.5625 -5 C 0.5625 -5.976562 0.796875 -6.859375 1.265625 -7.640625 C 1.734375 -8.429688 2.382812 -9.046875 3.21875 -9.484375 C 4.0625 -9.929688 5.003906 -10.15625 6.046875 -10.15625 C 6.921875 -10.15625 7.710938 -10.003906 8.421875 -9.703125 C 9.140625 -9.410156 9.742188 -8.988281 10.234375 -8.4375 L 8.75 -7.0625 C 8.03125 -7.8125 7.164062 -8.1875 6.15625 -8.1875 C 5.519531 -8.1875 4.953125 -8.050781 4.453125 -7.78125 C 3.960938 -7.519531 3.578125 -7.144531 3.296875 -6.65625 C 3.023438 -6.175781 2.890625 -5.625 2.890625 -5 C 2.890625 -4.375 3.023438 -3.816406 3.296875 -3.328125 C 3.578125 -2.847656 3.960938 -2.472656 4.453125 -2.203125 C 4.941406 -1.929688 5.503906 -1.796875 6.140625 -1.796875 C 6.796875 -1.796875 7.394531 -1.9375 7.9375 -2.21875 Z M 7.9375 -5.15625 "/></g></g></g><g fill="#231f20" fill-opacity="1"><g transform="translate(122.870426, 126.782863)"><g/></g></g><g fill="#231f20" fill-opacity="1"><g transform="translate(128.047061, 126.782863)"><g><path d="M 8.859375 0.171875 L 7.65625 -0.9375 C 6.707031 -0.195312 5.597656 0.171875 4.328125 0.171875 C 3.597656 0.171875 2.941406 0.0546875 2.359375 -0.171875 C 1.785156 -0.410156 1.332031 -0.738281 1 -1.15625 C 0.675781 -1.570312 0.515625 -2.039062 0.515625 -2.5625 C 0.515625 -3.1875 0.6875 -3.734375 1.03125 -4.203125 C 1.382812 -4.671875 1.941406 -5.117188 2.703125 -5.546875 C 2.347656 -5.921875 2.085938 -6.273438 1.921875 -6.609375 C 1.765625 -6.953125 1.6875 -7.300781 1.6875 -7.65625 C 1.6875 -8.144531 1.8125 -8.570312 2.0625 -8.9375 C 2.320312 -9.3125 2.6875 -9.597656 3.15625 -9.796875 C 3.625 -10.003906 4.171875 -10.109375 4.796875 -10.109375 C 5.660156 -10.109375 6.351562 -9.898438 6.875 -9.484375 C 7.394531 -9.078125 7.65625 -8.519531 7.65625 -7.8125 C 7.65625 -7.300781 7.5 -6.84375 7.1875 -6.4375 C 6.882812 -6.039062 6.390625 -5.660156 5.703125 -5.296875 L 7.53125 -3.59375 C 7.75 -4.050781 7.914062 -4.570312 8.03125 -5.15625 L 9.8125 -4.59375 C 9.625 -3.707031 9.320312 -2.953125 8.90625 -2.328125 L 10.078125 -1.234375 Z M 4.796875 -8.609375 C 4.460938 -8.609375 4.195312 -8.519531 4 -8.34375 C 3.800781 -8.175781 3.703125 -7.957031 3.703125 -7.6875 C 3.703125 -7.488281 3.753906 -7.300781 3.859375 -7.125 C 3.960938 -6.945312 4.171875 -6.710938 4.484375 -6.421875 C 4.960938 -6.671875 5.296875 -6.898438 5.484375 -7.109375 C 5.679688 -7.316406 5.78125 -7.539062 5.78125 -7.78125 C 5.78125 -8.019531 5.691406 -8.21875 5.515625 -8.375 C 5.347656 -8.53125 5.109375 -8.609375 4.796875 -8.609375 Z M 4.484375 -1.5625 C 5.171875 -1.5625 5.789062 -1.757812 6.34375 -2.15625 L 3.9375 -4.40625 C 3.488281 -4.144531 3.171875 -3.890625 2.984375 -3.640625 C 2.796875 -3.398438 2.703125 -3.125 2.703125 -2.8125 C 2.703125 -2.4375 2.863281 -2.132812 3.1875 -1.90625 C 3.507812 -1.675781 3.941406 -1.5625 4.484375 -1.5625 Z M 4.484375 -1.5625 "/></g></g></g><g fill="#231f20" fill-opacity="1"><g transform="translate(139.569722, 126.782863)"><g/></g></g><g fill="#231f20" fill-opacity="1"><g transform="translate(144.746358, 126.782863)"><g><path d="M 8.921875 -1.859375 L 8.921875 0 L 1.1875 0 L 1.1875 -9.984375 L 8.734375 -9.984375 L 8.734375 -8.125 L 3.484375 -8.125 L 3.484375 -5.96875 L 8.109375 -5.96875 L 8.109375 -4.171875 L 3.484375 -4.171875 L 3.484375 -1.859375 Z M 8.921875 -1.859375 "/></g></g></g><g fill="#231f20" fill-opacity="1"><g transform="translate(155.456157, 126.782863)"><g><path d="M 5.5 -9.984375 C 6.382812 -9.984375 7.148438 -9.832031 7.796875 -9.53125 C 8.453125 -9.238281 8.957031 -8.820312 9.3125 -8.28125 C 9.664062 -7.738281 9.84375 -7.097656 9.84375 -6.359375 C 9.84375 -5.628906 9.664062 -4.988281 9.3125 -4.4375 C 8.957031 -3.894531 8.453125 -3.476562 7.796875 -3.1875 C 7.148438 -2.894531 6.382812 -2.75 5.5 -2.75 L 3.5 -2.75 L 3.5 0 L 1.1875 0 L 1.1875 -9.984375 Z M 5.375 -4.640625 C 6.070312 -4.640625 6.597656 -4.785156 6.953125 -5.078125 C 7.316406 -5.378906 7.5 -5.804688 7.5 -6.359375 C 7.5 -6.921875 7.316406 -7.351562 6.953125 -7.65625 C 6.597656 -7.957031 6.070312 -8.109375 5.375 -8.109375 L 3.5 -8.109375 L 3.5 -4.640625 Z M 5.375 -4.640625 "/></g></g></g><g fill="#231f20" fill-opacity="1"><g transform="translate(167.035847, 126.782863)"><g><path d="M 6.015625 0.171875 C 4.984375 0.171875 4.050781 -0.0507812 3.21875 -0.5 C 2.382812 -0.945312 1.734375 -1.5625 1.265625 -2.34375 C 0.796875 -3.132812 0.5625 -4.019531 0.5625 -5 C 0.5625 -5.976562 0.796875 -6.859375 1.265625 -7.640625 C 1.734375 -8.421875 2.382812 -9.035156 3.21875 -9.484375 C 4.050781 -9.929688 4.984375 -10.15625 6.015625 -10.15625 C 7.054688 -10.15625 7.988281 -9.929688 8.8125 -9.484375 C 9.644531 -9.035156 10.296875 -8.421875 10.765625 -7.640625 C 11.242188 -6.859375 11.484375 -5.976562 11.484375 -5 C 11.484375 -4.019531 11.242188 -3.132812 10.765625 -2.34375 C 10.296875 -1.5625 9.644531 -0.945312 8.8125 -0.5 C 7.988281 -0.0507812 7.054688 0.171875 6.015625 0.171875 Z M 6.015625 -1.796875 C 6.609375 -1.796875 7.140625 -1.929688 7.609375 -2.203125 C 8.085938 -2.472656 8.460938 -2.847656 8.734375 -3.328125 C 9.003906 -3.816406 9.140625 -4.375 9.140625 -5 C 9.140625 -5.613281 9.003906 -6.160156 8.734375 -6.640625 C 8.460938 -7.128906 8.085938 -7.507812 7.609375 -7.78125 C 7.140625 -8.050781 6.609375 -8.1875 6.015625 -8.1875 C 5.429688 -8.1875 4.898438 -8.050781 4.421875 -7.78125 C 3.941406 -7.507812 3.566406 -7.128906 3.296875 -6.640625 C 3.023438 -6.160156 2.890625 -5.613281 2.890625 -5 C 2.890625 -4.375 3.023438 -3.816406 3.296875 -3.328125 C 3.566406 -2.847656 3.941406 -2.472656 4.421875 -2.203125 C 4.898438 -1.929688 5.429688 -1.796875 6.015625 -1.796875 Z M 6.015625 -1.796875 "/></g></g></g><g fill="#231f20" fill-opacity="1"><g transform="translate(180.212738, 126.782863)"><g><path d="M 7.46875 0 L 5.0625 -3.46875 L 2.703125 0 L 0.046875 0 L 3.734375 -5.078125 L 0.234375 -9.984375 L 2.859375 -9.984375 L 5.15625 -6.75 L 7.40625 -9.984375 L 9.90625 -9.984375 L 6.421875 -5.171875 L 10.140625 0 Z M 7.46875 0 "/></g></g></g><g fill="#231f20" fill-opacity="1"><g transform="translate(191.535734, 126.782863)"><g><path d="M 5.984375 -3.53125 L 5.984375 0 L 3.671875 0 L 3.671875 -3.5625 L -0.203125 -9.984375 L 2.25 -9.984375 L 4.921875 -5.546875 L 7.59375 -9.984375 L 9.859375 -9.984375 Z M 5.984375 -3.53125 "/></g></g></g><g fill="#231f20" fill-opacity="1"><g transform="translate(202.316842, 126.782863)"><g/></g></g><g fill="#231f20" fill-opacity="1"><g transform="translate(207.493487, 126.782863)"><g><path d="M 3.5 -8.125 L 3.5 -5.5 L 8.109375 -5.5 L 8.109375 -3.640625 L 3.5 -3.640625 L 3.5 0 L 1.1875 0 L 1.1875 -9.984375 L 8.734375 -9.984375 L 8.734375 -8.125 Z M 3.5 -8.125 "/></g></g></g><g fill="#231f20" fill-opacity="1"><g transform="translate(217.746952, 126.782863)"><g><path d="M 1.1875 -9.984375 L 3.5 -9.984375 L 3.5 -1.890625 L 8.5 -1.890625 L 8.5 0 L 1.1875 0 Z M 1.1875 -9.984375 "/></g></g></g><g fill="#231f20" fill-opacity="1"><g transform="translate(227.501279, 126.782863)"><g><path d="M 6.015625 0.171875 C 4.984375 0.171875 4.050781 -0.0507812 3.21875 -0.5 C 2.382812 -0.945312 1.734375 -1.5625 1.265625 -2.34375 C 0.796875 -3.132812 0.5625 -4.019531 0.5625 -5 C 0.5625 -5.976562 0.796875 -6.859375 1.265625 -7.640625 C 1.734375 -8.421875 2.382812 -9.035156 3.21875 -9.484375 C 4.050781 -9.929688 4.984375 -10.15625 6.015625 -10.15625 C 7.054688 -10.15625 7.988281 -9.929688 8.8125 -9.484375 C 9.644531 -9.035156 10.296875 -8.421875 10.765625 -7.640625 C 11.242188 -6.859375 11.484375 -5.976562 11.484375 -5 C 11.484375 -4.019531 11.242188 -3.132812 10.765625 -2.34375 C 10.296875 -1.5625 9.644531 -0.945312 8.8125 -0.5 C 7.988281 -0.0507812 7.054688 0.171875 6.015625 0.171875 Z M 6.015625 -1.796875 C 6.609375 -1.796875 7.140625 -1.929688 7.609375 -2.203125 C 8.085938 -2.472656 8.460938 -2.847656 8.734375 -3.328125 C 9.003906 -3.816406 9.140625 -4.375 9.140625 -5 C 9.140625 -5.613281 9.003906 -6.160156 8.734375 -6.640625 C 8.460938 -7.128906 8.085938 -7.507812 7.609375 -7.78125 C 7.140625 -8.050781 6.609375 -8.1875 6.015625 -8.1875 C 5.429688 -8.1875 4.898438 -8.050781 4.421875 -7.78125 C 3.941406 -7.507812 3.566406 -7.128906 3.296875 -6.640625 C 3.023438 -6.160156 2.890625 -5.613281 2.890625 -5 C 2.890625 -4.375 3.023438 -3.816406 3.296875 -3.328125 C 3.566406 -2.847656 3.941406 -2.472656 4.421875 -2.203125 C 4.898438 -1.929688 5.429688 -1.796875 6.015625 -1.796875 Z M 6.015625 -1.796875 "/></g></g></g><g fill="#231f20" fill-opacity="1"><g transform="translate(240.678179, 126.782863)"><g><path d="M 6.015625 0.171875 C 4.984375 0.171875 4.050781 -0.0507812 3.21875 -0.5 C 2.382812 -0.945312 1.734375 -1.5625 1.265625 -2.34375 C 0.796875 -3.132812 0.5625 -4.019531 0.5625 -5 C 0.5625 -5.976562 0.796875 -6.859375 1.265625 -7.640625 C 1.734375 -8.421875 2.382812 -9.035156 3.21875 -9.484375 C 4.050781 -9.929688 4.984375 -10.15625 6.015625 -10.15625 C 7.054688 -10.15625 7.988281 -9.929688 8.8125 -9.484375 C 9.644531 -9.035156 10.296875 -8.421875 10.765625 -7.640625 C 11.242188 -6.859375 11.484375 -5.976562 11.484375 -5 C 11.484375 -4.019531 11.242188 -3.132812 10.765625 -2.34375 C 10.296875 -1.5625 9.644531 -0.945312 8.8125 -0.5 C 7.988281 -0.0507812 7.054688 0.171875 6.015625 0.171875 Z M 6.015625 -1.796875 C 6.609375 -1.796875 7.140625 -1.929688 7.609375 -2.203125 C 8.085938 -2.472656 8.460938 -2.847656 8.734375 -3.328125 C 9.003906 -3.816406 9.140625 -4.375 9.140625 -5 C 9.140625 -5.613281 9.003906 -6.160156 8.734375 -6.640625 C 8.460938 -7.128906 8.085938 -7.507812 7.609375 -7.78125 C 7.140625 -8.050781 6.609375 -8.1875 6.015625 -8.1875 C 5.429688 -8.1875 4.898438 -8.050781 4.421875 -7.78125 C 3.941406 -7.507812 3.566406 -7.128906 3.296875 -6.640625 C 3.023438 -6.160156 2.890625 -5.613281 2.890625 -5 C 2.890625 -4.375 3.023438 -3.816406 3.296875 -3.328125 C 3.566406 -2.847656 3.941406 -2.472656 4.421875 -2.203125 C 4.898438 -1.929688 5.429688 -1.796875 6.015625 -1.796875 Z M 6.015625 -1.796875 "/></g></g></g><g fill="#231f20" fill-opacity="1"><g transform="translate(253.855079, 126.782863)"><g><path d="M 7.546875 0 L 5.625 -2.78125 L 3.5 -2.78125 L 3.5 0 L 1.1875 0 L 1.1875 -9.984375 L 5.5 -9.984375 C 6.382812 -9.984375 7.148438 -9.832031 7.796875 -9.53125 C 8.453125 -9.238281 8.957031 -8.820312 9.3125 -8.28125 C 9.664062 -7.738281 9.84375 -7.097656 9.84375 -6.359375 C 9.84375 -5.617188 9.660156 -4.976562 9.296875 -4.4375 C 8.941406 -3.90625 8.4375 -3.492188 7.78125 -3.203125 L 10.03125 0 Z M 7.5 -6.359375 C 7.5 -6.921875 7.316406 -7.351562 6.953125 -7.65625 C 6.597656 -7.957031 6.070312 -8.109375 5.375 -8.109375 L 3.5 -8.109375 L 3.5 -4.625 L 5.375 -4.625 C 6.070312 -4.625 6.597656 -4.773438 6.953125 -5.078125 C 7.316406 -5.378906 7.5 -5.804688 7.5 -6.359375 Z M 7.5 -6.359375 "/></g></g></g><g fill="#231f20" fill-opacity="1"><g transform="translate(31.922202, 87.518133)"><g><path d="M 25.21875 -15.140625 C 26.875 -14.554688 28.171875 -13.648438 29.109375 -12.421875 C 30.046875 -11.191406 30.515625 -9.707031 30.515625 -7.96875 C 30.515625 -5.414062 29.492188 -3.445312 27.453125 -2.0625 C 25.410156 -0.6875 22.453125 0 18.578125 0 L 2.90625 0 L 2.90625 -29.03125 L 17.75 -29.03125 C 21.457031 -29.03125 24.273438 -28.34375 26.203125 -26.96875 C 28.140625 -25.601562 29.109375 -23.757812 29.109375 -21.4375 C 29.109375 -20.050781 28.769531 -18.8125 28.09375 -17.71875 C 27.414062 -16.632812 26.457031 -15.773438 25.21875 -15.140625 Z M 11.03125 -23.09375 L 11.03125 -17.5 L 16.671875 -17.5 C 19.429688 -17.5 20.8125 -18.4375 20.8125 -20.3125 C 20.8125 -22.164062 19.429688 -23.09375 16.671875 -23.09375 Z M 17.921875 -5.9375 C 20.796875 -5.9375 22.234375 -6.914062 22.234375 -8.875 C 22.234375 -10.832031 20.796875 -11.8125 17.921875 -11.8125 L 11.03125 -11.8125 L 11.03125 -5.9375 Z M 17.921875 -5.9375 "/></g></g></g><g fill="#231f20" fill-opacity="1"><g transform="translate(62.396308, 87.518133)"><g><path d="M 10.03125 -19.78125 C 10.832031 -20.800781 11.875 -21.566406 13.15625 -22.078125 C 14.445312 -22.585938 15.921875 -22.84375 17.578125 -22.84375 L 17.578125 -15.765625 C 16.859375 -15.835938 16.265625 -15.875 15.796875 -15.875 C 14.109375 -15.875 12.785156 -15.414062 11.828125 -14.5 C 10.878906 -13.59375 10.40625 -12.203125 10.40625 -10.328125 L 10.40625 0 L 2.53125 0 L 2.53125 -22.46875 L 10.03125 -22.46875 Z M 10.03125 -19.78125 "/></g></g></g><g fill="#231f20" fill-opacity="1"><g transform="translate(79.353921, 87.518133)"><g><path d="M 2.53125 -22.46875 L 10.40625 -22.46875 L 10.40625 0 L 2.53125 0 Z M 6.46875 -24.96875 C 5.03125 -24.96875 3.867188 -25.367188 2.984375 -26.171875 C 2.097656 -26.972656 1.65625 -27.96875 1.65625 -29.15625 C 1.65625 -30.34375 2.097656 -31.335938 2.984375 -32.140625 C 3.867188 -32.941406 5.03125 -33.34375 6.46875 -33.34375 C 7.90625 -33.34375 9.066406 -32.960938 9.953125 -32.203125 C 10.835938 -31.441406 11.28125 -30.46875 11.28125 -29.28125 C 11.28125 -28.03125 10.835938 -27 9.953125 -26.1875 C 9.066406 -25.375 7.90625 -24.96875 6.46875 -24.96875 Z M 6.46875 -24.96875 "/></g></g></g><g fill="#231f20" fill-opacity="1"><g transform="translate(90.921519, 87.518133)"><g><path d="M 26.703125 -22.46875 L 26.703125 -4.109375 C 26.703125 0.0664062 25.566406 3.195312 23.296875 5.28125 C 21.035156 7.375 17.773438 8.421875 13.515625 8.421875 C 11.304688 8.421875 9.234375 8.171875 7.296875 7.671875 C 5.359375 7.171875 3.710938 6.4375 2.359375 5.46875 L 5.21875 -0.046875 C 6.132812 0.703125 7.289062 1.289062 8.6875 1.71875 C 10.082031 2.144531 11.457031 2.359375 12.8125 2.359375 C 14.882812 2.359375 16.40625 1.898438 17.375 0.984375 C 18.34375 0.078125 18.828125 -1.269531 18.828125 -3.0625 L 18.828125 -3.8125 C 17.304688 -2.039062 15.082031 -1.15625 12.15625 -1.15625 C 10.164062 -1.15625 8.328125 -1.601562 6.640625 -2.5 C 4.953125 -3.40625 3.609375 -4.679688 2.609375 -6.328125 C 1.617188 -7.972656 1.125 -9.875 1.125 -12.03125 C 1.125 -14.15625 1.617188 -16.039062 2.609375 -17.6875 C 3.609375 -19.332031 4.953125 -20.601562 6.640625 -21.5 C 8.328125 -22.394531 10.164062 -22.84375 12.15625 -22.84375 C 15.351562 -22.84375 17.703125 -21.804688 19.203125 -19.734375 L 19.203125 -22.46875 Z M 14.015625 -7.421875 C 15.421875 -7.421875 16.585938 -7.847656 17.515625 -8.703125 C 18.441406 -9.566406 18.90625 -10.675781 18.90625 -12.03125 C 18.90625 -13.382812 18.445312 -14.484375 17.53125 -15.328125 C 16.625 -16.171875 15.453125 -16.59375 14.015625 -16.59375 C 12.578125 -16.59375 11.394531 -16.171875 10.46875 -15.328125 C 9.539062 -14.484375 9.078125 -13.382812 9.078125 -12.03125 C 9.078125 -10.675781 9.546875 -9.566406 10.484375 -8.703125 C 11.429688 -7.847656 12.609375 -7.421875 14.015625 -7.421875 Z M 14.015625 -7.421875 "/></g></g></g><g fill="#231f20" fill-opacity="1"><g transform="translate(118.74208, 87.518133)"><g><path d="M 17.171875 -22.84375 C 19.960938 -22.84375 22.207031 -22.015625 23.90625 -20.359375 C 25.601562 -18.703125 26.453125 -16.203125 26.453125 -12.859375 L 26.453125 0 L 18.578125 0 L 18.578125 -11.5625 C 18.578125 -14.632812 17.347656 -16.171875 14.890625 -16.171875 C 13.535156 -16.171875 12.445312 -15.726562 11.625 -14.84375 C 10.8125 -13.957031 10.40625 -12.628906 10.40625 -10.859375 L 10.40625 0 L 2.53125 0 L 2.53125 -30.765625 L 10.40625 -30.765625 L 10.40625 -20.40625 C 11.257812 -21.207031 12.265625 -21.8125 13.421875 -22.21875 C 14.585938 -22.632812 15.835938 -22.84375 17.171875 -22.84375 Z M 17.171875 -22.84375 "/></g></g></g><g fill="#231f20" fill-opacity="1"><g transform="translate(146.189483, 87.518133)"><g><path d="M 18.03125 -0.90625 C 17.375 -0.5 16.566406 -0.1875 15.609375 0.03125 C 14.660156 0.257812 13.644531 0.375 12.5625 0.375 C 9.632812 0.375 7.378906 -0.34375 5.796875 -1.78125 C 4.222656 -3.21875 3.4375 -5.359375 3.4375 -8.203125 L 3.4375 -15.765625 L 0.171875 -15.765625 L 0.171875 -21.640625 L 3.4375 -21.640625 L 3.4375 -27.5 L 11.328125 -27.5 L 11.328125 -21.640625 L 16.46875 -21.640625 L 16.46875 -15.765625 L 11.328125 -15.765625 L 11.328125 -8.296875 C 11.328125 -7.492188 11.539062 -6.863281 11.96875 -6.40625 C 12.394531 -5.945312 12.96875 -5.71875 13.6875 -5.71875 C 14.59375 -5.71875 15.394531 -5.953125 16.09375 -6.421875 Z M 18.03125 -0.90625 "/></g></g></g><g fill="#231f20" fill-opacity="1"><g transform="translate(162.191356, 88.327371)"><g><path d="M 14.953125 0.296875 C 12.421875 0.296875 9.992188 -0.109375 7.671875 -0.921875 C 5.347656 -1.734375 3.554688 -2.804688 2.296875 -4.140625 L 3.703125 -6.921875 C 4.929688 -5.679688 6.566406 -4.679688 8.609375 -3.921875 C 10.660156 -3.160156 12.773438 -2.78125 14.953125 -2.78125 C 18.003906 -2.78125 20.289062 -3.335938 21.8125 -4.453125 C 23.34375 -5.578125 24.109375 -7.03125 24.109375 -8.8125 C 24.109375 -10.175781 23.691406 -11.265625 22.859375 -12.078125 C 22.035156 -12.890625 21.023438 -13.515625 19.828125 -13.953125 C 18.628906 -14.390625 16.957031 -14.867188 14.8125 -15.390625 C 12.25 -16.046875 10.203125 -16.671875 8.671875 -17.265625 C 7.140625 -17.867188 5.832031 -18.785156 4.75 -20.015625 C 3.664062 -21.253906 3.125 -22.929688 3.125 -25.046875 C 3.125 -26.765625 3.578125 -28.328125 4.484375 -29.734375 C 5.390625 -31.148438 6.785156 -32.28125 8.671875 -33.125 C 10.554688 -33.96875 12.894531 -34.390625 15.6875 -34.390625 C 17.632812 -34.390625 19.539062 -34.117188 21.40625 -33.578125 C 23.28125 -33.046875 24.898438 -32.3125 26.265625 -31.375 L 25.046875 -28.5 C 23.609375 -29.4375 22.078125 -30.140625 20.453125 -30.609375 C 18.835938 -31.085938 17.25 -31.328125 15.6875 -31.328125 C 12.695312 -31.328125 10.445312 -30.75 8.9375 -29.59375 C 7.425781 -28.4375 6.671875 -26.953125 6.671875 -25.140625 C 6.671875 -23.773438 7.082031 -22.675781 7.90625 -21.84375 C 8.738281 -21.019531 9.78125 -20.390625 11.03125 -19.953125 C 12.28125 -19.515625 13.960938 -19.035156 16.078125 -18.515625 C 18.578125 -17.898438 20.597656 -17.289062 22.140625 -16.6875 C 23.679688 -16.082031 24.988281 -15.171875 26.0625 -13.953125 C 27.132812 -12.734375 27.671875 -11.085938 27.671875 -9.015625 C 27.671875 -7.296875 27.207031 -5.726562 26.28125 -4.3125 C 25.351562 -2.894531 23.929688 -1.769531 22.015625 -0.9375 C 20.097656 -0.113281 17.742188 0.296875 14.953125 0.296875 Z M 14.953125 0.296875 "/></g></g></g><g fill="#231f20" fill-opacity="1"><g transform="translate(187.381144, 88.327371)"><g><path d="M 15.4375 0.25 C 12.90625 0.25 10.640625 -0.300781 8.640625 -1.40625 C 6.648438 -2.507812 5.082031 -4.0625 3.9375 -6.0625 C 2.800781 -8.0625 2.234375 -10.3125 2.234375 -12.8125 C 2.234375 -15.3125 2.800781 -17.550781 3.9375 -19.53125 C 5.082031 -21.519531 6.648438 -23.066406 8.640625 -24.171875 C 10.640625 -25.273438 12.90625 -25.828125 15.4375 -25.828125 C 17.644531 -25.828125 19.617188 -25.394531 21.359375 -24.53125 C 23.097656 -23.664062 24.472656 -22.40625 25.484375 -20.75 L 22.890625 -19 C 22.046875 -20.269531 20.972656 -21.21875 19.671875 -21.84375 C 18.378906 -22.476562 16.96875 -22.796875 15.4375 -22.796875 C 13.59375 -22.796875 11.929688 -22.378906 10.453125 -21.546875 C 8.972656 -20.722656 7.816406 -19.546875 6.984375 -18.015625 C 6.160156 -16.492188 5.75 -14.757812 5.75 -12.8125 C 5.75 -10.832031 6.160156 -9.085938 6.984375 -7.578125 C 7.816406 -6.066406 8.972656 -4.894531 10.453125 -4.0625 C 11.929688 -3.238281 13.59375 -2.828125 15.4375 -2.828125 C 16.96875 -2.828125 18.378906 -3.132812 19.671875 -3.75 C 20.972656 -4.363281 22.046875 -5.304688 22.890625 -6.578125 L 25.484375 -4.828125 C 24.472656 -3.171875 23.085938 -1.910156 21.328125 -1.046875 C 19.578125 -0.179688 17.613281 0.25 15.4375 0.25 Z M 15.4375 0.25 "/></g></g></g><g fill="#231f20" fill-opacity="1"><g transform="translate(210.037327, 88.327371)"><g><path d="M 13.78125 -25.828125 C 17.132812 -25.828125 19.703125 -24.988281 21.484375 -23.3125 C 23.273438 -21.632812 24.171875 -19.15625 24.171875 -15.875 L 24.171875 0 L 20.859375 0 L 20.859375 -4 C 20.078125 -2.664062 18.929688 -1.625 17.421875 -0.875 C 15.910156 -0.125 14.113281 0.25 12.03125 0.25 C 9.175781 0.25 6.898438 -0.429688 5.203125 -1.796875 C 3.515625 -3.160156 2.671875 -4.960938 2.671875 -7.203125 C 2.671875 -9.378906 3.457031 -11.132812 5.03125 -12.46875 C 6.613281 -13.800781 9.125 -14.46875 12.5625 -14.46875 L 20.703125 -14.46875 L 20.703125 -16.03125 C 20.703125 -18.238281 20.082031 -19.914062 18.84375 -21.0625 C 17.613281 -22.21875 15.816406 -22.796875 13.453125 -22.796875 C 11.828125 -22.796875 10.265625 -22.523438 8.765625 -21.984375 C 7.273438 -21.453125 5.992188 -20.71875 4.921875 -19.78125 L 3.359375 -22.359375 C 4.660156 -23.460938 6.21875 -24.316406 8.03125 -24.921875 C 9.851562 -25.523438 11.769531 -25.828125 13.78125 -25.828125 Z M 12.5625 -2.484375 C 14.519531 -2.484375 16.195312 -2.929688 17.59375 -3.828125 C 18.988281 -4.722656 20.023438 -6.015625 20.703125 -7.703125 L 20.703125 -11.890625 L 12.671875 -11.890625 C 8.285156 -11.890625 6.09375 -10.363281 6.09375 -7.3125 C 6.09375 -5.8125 6.660156 -4.628906 7.796875 -3.765625 C 8.929688 -2.910156 10.519531 -2.484375 12.5625 -2.484375 Z M 12.5625 -2.484375 "/></g></g></g><g fill="#231f20" fill-opacity="1"><g transform="translate(234.009026, 88.327371)"><g><path d="M 4.828125 -36.15625 L 8.28125 -36.15625 L 8.28125 0 L 4.828125 0 Z M 4.828125 -36.15625 "/></g></g></g><g fill="#231f20" fill-opacity="1"><g transform="translate(242.340636, 88.327371)"><g><path d="M 27.140625 -11.734375 L 5.703125 -11.734375 C 5.898438 -9.078125 6.921875 -6.925781 8.765625 -5.28125 C 10.617188 -3.644531 12.957031 -2.828125 15.78125 -2.828125 C 17.375 -2.828125 18.835938 -3.109375 20.171875 -3.671875 C 21.503906 -4.242188 22.65625 -5.082031 23.625 -6.1875 L 25.578125 -3.953125 C 24.441406 -2.585938 23.019531 -1.546875 21.3125 -0.828125 C 19.601562 -0.109375 17.726562 0.25 15.6875 0.25 C 13.050781 0.25 10.71875 -0.3125 8.6875 -1.4375 C 6.664062 -2.5625 5.082031 -4.113281 3.9375 -6.09375 C 2.800781 -8.070312 2.234375 -10.3125 2.234375 -12.8125 C 2.234375 -15.3125 2.773438 -17.550781 3.859375 -19.53125 C 4.953125 -21.519531 6.445312 -23.066406 8.34375 -24.171875 C 10.25 -25.273438 12.390625 -25.828125 14.765625 -25.828125 C 17.128906 -25.828125 19.253906 -25.273438 21.140625 -24.171875 C 23.023438 -23.066406 24.503906 -21.53125 25.578125 -19.5625 C 26.648438 -17.59375 27.1875 -15.34375 27.1875 -12.8125 Z M 14.765625 -22.84375 C 12.296875 -22.84375 10.222656 -22.054688 8.546875 -20.484375 C 6.878906 -18.910156 5.929688 -16.859375 5.703125 -14.328125 L 23.875 -14.328125 C 23.644531 -16.859375 22.691406 -18.910156 21.015625 -20.484375 C 19.347656 -22.054688 17.265625 -22.84375 14.765625 -22.84375 Z M 14.765625 -22.84375 "/></g></g></g><g fill="#231f20" fill-opacity="1"><g transform="translate(233.050078, 102.69633)"><g><path d="M 6.46875 -5.453125 L 6.46875 -1 C 6.46875 0.0078125 6.191406 0.769531 5.640625 1.28125 C 5.097656 1.789062 4.3125 2.046875 3.28125 2.046875 C 2.738281 2.046875 2.234375 1.984375 1.765625 1.859375 C 1.296875 1.734375 0.898438 1.554688 0.578125 1.328125 L 1.265625 -0.015625 C 1.484375 0.171875 1.757812 0.316406 2.09375 0.421875 C 2.4375 0.523438 2.773438 0.578125 3.109375 0.578125 C 3.609375 0.578125 3.972656 0.460938 4.203125 0.234375 C 4.441406 0.015625 4.5625 -0.3125 4.5625 -0.75 L 4.5625 -0.921875 C 4.195312 -0.492188 3.65625 -0.28125 2.9375 -0.28125 C 2.457031 -0.28125 2.015625 -0.390625 1.609375 -0.609375 C 1.203125 -0.828125 0.875 -1.132812 0.625 -1.53125 C 0.382812 -1.925781 0.265625 -2.382812 0.265625 -2.90625 C 0.265625 -3.425781 0.382812 -3.882812 0.625 -4.28125 C 0.875 -4.6875 1.203125 -4.992188 1.609375 -5.203125 C 2.015625 -5.421875 2.457031 -5.53125 2.9375 -5.53125 C 3.71875 -5.53125 4.289062 -5.28125 4.65625 -4.78125 L 4.65625 -5.453125 Z M 3.390625 -1.796875 C 3.734375 -1.796875 4.015625 -1.898438 4.234375 -2.109375 C 4.460938 -2.316406 4.578125 -2.582031 4.578125 -2.90625 C 4.578125 -3.238281 4.46875 -3.503906 4.25 -3.703125 C 4.03125 -3.910156 3.742188 -4.015625 3.390625 -4.015625 C 3.046875 -4.015625 2.757812 -3.910156 2.53125 -3.703125 C 2.3125 -3.503906 2.203125 -3.238281 2.203125 -2.90625 C 2.203125 -2.582031 2.316406 -2.316406 2.546875 -2.109375 C 2.773438 -1.898438 3.054688 -1.796875 3.390625 -1.796875 Z M 3.390625 -1.796875 "/></g></g></g><g fill="#231f20" fill-opacity="1"><g transform="translate(239.790245, 102.69633)"><g><path d="M 2.4375 -4.796875 C 2.625 -5.046875 2.875 -5.226562 3.1875 -5.34375 C 3.5 -5.46875 3.859375 -5.53125 4.265625 -5.53125 L 4.265625 -3.8125 C 4.085938 -3.832031 3.941406 -3.84375 3.828125 -3.84375 C 3.421875 -3.84375 3.097656 -3.734375 2.859375 -3.515625 C 2.628906 -3.296875 2.515625 -2.957031 2.515625 -2.5 L 2.515625 0 L 0.609375 0 L 0.609375 -5.453125 L 2.4375 -5.453125 Z M 2.4375 -4.796875 "/></g></g></g><g fill="#231f20" fill-opacity="1"><g transform="translate(243.898615, 102.69633)"><g><path d="M 3.34375 0.09375 C 2.757812 0.09375 2.234375 -0.0234375 1.765625 -0.265625 C 1.296875 -0.515625 0.925781 -0.851562 0.65625 -1.28125 C 0.394531 -1.707031 0.265625 -2.191406 0.265625 -2.734375 C 0.265625 -3.265625 0.394531 -3.742188 0.65625 -4.171875 C 0.925781 -4.609375 1.296875 -4.941406 1.765625 -5.171875 C 2.234375 -5.410156 2.757812 -5.53125 3.34375 -5.53125 C 3.9375 -5.53125 4.46875 -5.410156 4.9375 -5.171875 C 5.40625 -4.941406 5.769531 -4.613281 6.03125 -4.1875 C 6.289062 -3.757812 6.421875 -3.273438 6.421875 -2.734375 C 6.421875 -2.191406 6.289062 -1.707031 6.03125 -1.28125 C 5.769531 -0.851562 5.40625 -0.515625 4.9375 -0.265625 C 4.46875 -0.0234375 3.9375 0.09375 3.34375 0.09375 Z M 3.34375 -1.421875 C 3.675781 -1.421875 3.945312 -1.535156 4.15625 -1.765625 C 4.375 -2.003906 4.484375 -2.328125 4.484375 -2.734375 C 4.484375 -3.128906 4.375 -3.441406 4.15625 -3.671875 C 3.945312 -3.898438 3.675781 -4.015625 3.34375 -4.015625 C 3.007812 -4.015625 2.734375 -3.898438 2.515625 -3.671875 C 2.304688 -3.441406 2.203125 -3.128906 2.203125 -2.734375 C 2.203125 -2.328125 2.304688 -2.003906 2.515625 -1.765625 C 2.734375 -1.535156 3.007812 -1.421875 3.34375 -1.421875 Z M 3.34375 -1.421875 "/></g></g></g><g fill="#231f20" fill-opacity="1"><g transform="translate(250.247026, 102.69633)"><g><path d="M 6.34375 -5.453125 L 6.34375 0 L 4.515625 0 L 4.515625 -0.578125 C 4.316406 -0.359375 4.078125 -0.191406 3.796875 -0.078125 C 3.515625 0.0351562 3.21875 0.09375 2.90625 0.09375 C 2.195312 0.09375 1.632812 -0.113281 1.21875 -0.53125 C 0.800781 -0.945312 0.59375 -1.570312 0.59375 -2.40625 L 0.59375 -5.453125 L 2.5 -5.453125 L 2.5 -2.71875 C 2.5 -2.300781 2.578125 -2 2.734375 -1.8125 C 2.890625 -1.625 3.113281 -1.53125 3.40625 -1.53125 C 3.707031 -1.53125 3.953125 -1.632812 4.140625 -1.84375 C 4.335938 -2.0625 4.4375 -2.390625 4.4375 -2.828125 L 4.4375 -5.453125 Z M 6.34375 -5.453125 "/></g></g></g><g fill="#231f20" fill-opacity="1"><g transform="translate(256.856606, 102.69633)"><g><path d="M 4.03125 -5.53125 C 4.53125 -5.53125 4.984375 -5.414062 5.390625 -5.1875 C 5.796875 -4.957031 6.117188 -4.628906 6.359375 -4.203125 C 6.597656 -3.773438 6.71875 -3.28125 6.71875 -2.71875 C 6.71875 -2.15625 6.597656 -1.660156 6.359375 -1.234375 C 6.117188 -0.816406 5.796875 -0.488281 5.390625 -0.25 C 4.984375 -0.0195312 4.53125 0.09375 4.03125 0.09375 C 3.394531 0.09375 2.890625 -0.0976562 2.515625 -0.484375 L 2.515625 1.953125 L 0.609375 1.953125 L 0.609375 -5.453125 L 2.4375 -5.453125 L 2.4375 -4.90625 C 2.789062 -5.320312 3.320312 -5.53125 4.03125 -5.53125 Z M 3.640625 -1.421875 C 3.972656 -1.421875 4.242188 -1.535156 4.453125 -1.765625 C 4.671875 -2.003906 4.78125 -2.320312 4.78125 -2.71875 C 4.78125 -3.125 4.671875 -3.441406 4.453125 -3.671875 C 4.242188 -3.898438 3.972656 -4.015625 3.640625 -4.015625 C 3.304688 -4.015625 3.03125 -3.898438 2.8125 -3.671875 C 2.59375 -3.441406 2.484375 -3.125 2.484375 -2.71875 C 2.484375 -2.320312 2.59375 -2.003906 2.8125 -1.765625 C 3.03125 -1.535156 3.304688 -1.421875 3.640625 -1.421875 Z M 3.640625 -1.421875 "/></g></g></g><g fill="#231f20" fill-opacity="1"><g transform="translate(263.496324, 102.69633)"><g><path d="M 1.421875 0.09375 C 1.097656 0.09375 0.820312 -0.0078125 0.59375 -0.21875 C 0.375 -0.4375 0.265625 -0.710938 0.265625 -1.046875 C 0.265625 -1.378906 0.375 -1.648438 0.59375 -1.859375 C 0.8125 -2.066406 1.085938 -2.171875 1.421875 -2.171875 C 1.753906 -2.171875 2.023438 -2.066406 2.234375 -1.859375 C 2.453125 -1.648438 2.5625 -1.378906 2.5625 -1.046875 C 2.5625 -0.710938 2.453125 -0.4375 2.234375 -0.21875 C 2.015625 -0.0078125 1.742188 0.09375 1.421875 0.09375 Z M 1.421875 0.09375 "/></g></g></g></svg>