<svg xmlns="http://www.w3.org/2000/svg" xmlns:xlink="http://www.w3.org/1999/xlink" width="410" zoomAndPan="magnify" viewBox="0 0 307.5 140.249994" height="187" preserveAspectRatio="xMidYMid meet" version="1.0"><defs><g/><clipPath id="cdf2d3e70e"><path d="M 0.570312 0 L 306.433594 0 L 306.433594 139.503906 L 0.570312 139.503906 Z M 0.570312 0 " clip-rule="nonzero"/></clipPath><clipPath id="831cdeccbf"><path d="M 0.582031 4.71875 L 306.433594 4.71875 L 306.433594 130 L 0.582031 130 Z M 0.582031 4.71875 " clip-rule="nonzero"/></clipPath><clipPath id="2cd1c02ae4"><path d="M 16.992188 4.71875 L 290.011719 4.71875 C 299.074219 4.71875 306.421875 12.066406 306.421875 21.132812 L 306.421875 113.511719 C 306.421875 122.574219 299.074219 129.921875 290.011719 129.921875 L 16.992188 129.921875 C 7.929688 129.921875 0.582031 122.574219 0.582031 113.511719 L 0.582031 21.132812 C 0.582031 12.066406 7.929688 4.71875 16.992188 4.71875 Z M 16.992188 4.71875 " clip-rule="nonzero"/></clipPath><clipPath id="75dbce3ea1"><path d="M 35.648438 116.980469 L 268.882812 116.980469 L 268.882812 129.929688 L 35.648438 129.929688 Z M 35.648438 116.980469 " clip-rule="nonzero"/></clipPath></defs><g clip-path="url(#cdf2d3e70e)"><path fill="#ffffff" d="M 0.570312 0 L 306.433594 0 L 306.433594 139.503906 L 0.570312 139.503906 Z M 0.570312 0 " fill-opacity="1" fill-rule="nonzero"/><path fill="#fefeff" d="M 0.570312 0 L 306.433594 0 L 306.433594 139.503906 L 0.570312 139.503906 Z M 0.570312 0 " fill-opacity="1" fill-rule="nonzero"/></g><g clip-path="url(#831cdeccbf)"><g clip-path="url(#2cd1c02ae4)"><path stroke-linecap="butt" transform="matrix(0.746011, 0, 0, 0.746011, 0.58072, 4.720179)" fill="none" stroke-linejoin="miter" d="M 21.998974 -0.00191494 L 387.97171 -0.00191494 C 400.119661 -0.00191494 409.968926 9.847351 409.968926 22.000538 L 409.968926 145.831096 C 409.968926 157.979048 400.119661 167.828313 387.97171 167.828313 L 21.998974 167.828313 C 9.851023 167.828313 0.00175713 157.979048 0.00175713 145.831096 L 0.00175713 22.000538 C 0.00175713 9.847351 9.851023 -0.00191494 21.998974 -0.00191494 Z M 21.998974 -0.00191494 " stroke="#00ecf4" stroke-width="34" stroke-opacity="1" stroke-miterlimit="4"/></g></g><g clip-path="url(#75dbce3ea1)"><path fill="#fefeff" d="M 35.648438 116.980469 L 268.871094 116.980469 L 268.871094 129.929688 L 35.648438 129.929688 Z M 35.648438 116.980469 " fill-opacity="1" fill-rule="nonzero"/></g><g fill="#040640" fill-opacity="1"><g transform="translate(31.922202, 86.230987)"><g><path d="M 25.21875 -15.140625 C 26.875 -14.554688 28.171875 -13.648438 29.109375 -12.421875 C 30.046875 -11.191406 30.515625 -9.707031 30.515625 -7.96875 C 30.515625 -5.414062 29.492188 -3.445312 27.453125 -2.0625 C 25.410156 -0.6875 22.453125 0 18.578125 0 L 2.90625 0 L 2.90625 -29.03125 L 17.75 -29.03125 C 21.457031 -29.03125 24.273438 -28.34375 26.203125 -26.96875 C 28.140625 -25.601562 29.109375 -23.757812 29.109375 -21.4375 C 29.109375 -20.050781 28.769531 -18.8125 28.09375 -17.71875 C 27.414062 -16.632812 26.457031 -15.773438 25.21875 -15.140625 Z M 11.03125 -23.09375 L 11.03125 -17.5 L 16.671875 -17.5 C 19.429688 -17.5 20.8125 -18.4375 20.8125 -20.3125 C 20.8125 -22.164062 19.429688 -23.09375 16.671875 -23.09375 Z M 17.921875 -5.9375 C 20.796875 -5.9375 22.234375 -6.914062 22.234375 -8.875 C 22.234375 -10.832031 20.796875 -11.8125 17.921875 -11.8125 L 11.03125 -11.8125 L 11.03125 -5.9375 Z M 17.921875 -5.9375 "/></g></g></g><g fill="#040640" fill-opacity="1"><g transform="translate(62.396308, 86.230987)"><g><path d="M 10.03125 -19.78125 C 10.832031 -20.800781 11.875 -21.566406 13.15625 -22.078125 C 14.445312 -22.585938 15.921875 -22.84375 17.578125 -22.84375 L 17.578125 -15.765625 C 16.859375 -15.835938 16.265625 -15.875 15.796875 -15.875 C 14.109375 -15.875 12.785156 -15.414062 11.828125 -14.5 C 10.878906 -13.59375 10.40625 -12.203125 10.40625 -10.328125 L 10.40625 0 L 2.53125 0 L 2.53125 -22.46875 L 10.03125 -22.46875 Z M 10.03125 -19.78125 "/></g></g></g><g fill="#040640" fill-opacity="1"><g transform="translate(79.353921, 86.230987)"><g><path d="M 2.53125 -22.46875 L 10.40625 -22.46875 L 10.40625 0 L 2.53125 0 Z M 6.46875 -24.96875 C 5.03125 -24.96875 3.867188 -25.367188 2.984375 -26.171875 C 2.097656 -26.972656 1.65625 -27.96875 1.65625 -29.15625 C 1.65625 -30.34375 2.097656 -31.335938 2.984375 -32.140625 C 3.867188 -32.941406 5.03125 -33.34375 6.46875 -33.34375 C 7.90625 -33.34375 9.066406 -32.960938 9.953125 -32.203125 C 10.835938 -31.441406 11.28125 -30.46875 11.28125 -29.28125 C 11.28125 -28.03125 10.835938 -27 9.953125 -26.1875 C 9.066406 -25.375 7.90625 -24.96875 6.46875 -24.96875 Z M 6.46875 -24.96875 "/></g></g></g><g fill="#040640" fill-opacity="1"><g transform="translate(90.921519, 86.230987)"><g><path d="M 26.703125 -22.46875 L 26.703125 -4.109375 C 26.703125 0.0664062 25.566406 3.195312 23.296875 5.28125 C 21.035156 7.375 17.773438 8.421875 13.515625 8.421875 C 11.304688 8.421875 9.234375 8.171875 7.296875 7.671875 C 5.359375 7.171875 3.710938 6.4375 2.359375 5.46875 L 5.21875 -0.046875 C 6.132812 0.703125 7.289062 1.289062 8.6875 1.71875 C 10.082031 2.144531 11.457031 2.359375 12.8125 2.359375 C 14.882812 2.359375 16.40625 1.898438 17.375 0.984375 C 18.34375 0.078125 18.828125 -1.269531 18.828125 -3.0625 L 18.828125 -3.8125 C 17.304688 -2.039062 15.082031 -1.15625 12.15625 -1.15625 C 10.164062 -1.15625 8.328125 -1.601562 6.640625 -2.5 C 4.953125 -3.40625 3.609375 -4.679688 2.609375 -6.328125 C 1.617188 -7.972656 1.125 -9.875 1.125 -12.03125 C 1.125 -14.15625 1.617188 -16.039062 2.609375 -17.6875 C 3.609375 -19.332031 4.953125 -20.601562 6.640625 -21.5 C 8.328125 -22.394531 10.164062 -22.84375 12.15625 -22.84375 C 15.351562 -22.84375 17.703125 -21.804688 19.203125 -19.734375 L 19.203125 -22.46875 Z M 14.015625 -7.421875 C 15.421875 -7.421875 16.585938 -7.847656 17.515625 -8.703125 C 18.441406 -9.566406 18.90625 -10.675781 18.90625 -12.03125 C 18.90625 -13.382812 18.445312 -14.484375 17.53125 -15.328125 C 16.625 -16.171875 15.453125 -16.59375 14.015625 -16.59375 C 12.578125 -16.59375 11.394531 -16.171875 10.46875 -15.328125 C 9.539062 -14.484375 9.078125 -13.382812 9.078125 -12.03125 C 9.078125 -10.675781 9.546875 -9.566406 10.484375 -8.703125 C 11.429688 -7.847656 12.609375 -7.421875 14.015625 -7.421875 Z M 14.015625 -7.421875 "/></g></g></g><g fill="#040640" fill-opacity="1"><g transform="translate(118.74208, 86.230987)"><g><path d="M 17.171875 -22.84375 C 19.960938 -22.84375 22.207031 -22.015625 23.90625 -20.359375 C 25.601562 -18.703125 26.453125 -16.203125 26.453125 -12.859375 L 26.453125 0 L 18.578125 0 L 18.578125 -11.5625 C 18.578125 -14.632812 17.347656 -16.171875 14.890625 -16.171875 C 13.535156 -16.171875 12.445312 -15.726562 11.625 -14.84375 C 10.8125 -13.957031 10.40625 -12.628906 10.40625 -10.859375 L 10.40625 0 L 2.53125 0 L 2.53125 -30.765625 L 10.40625 -30.765625 L 10.40625 -20.40625 C 11.257812 -21.207031 12.265625 -21.8125 13.421875 -22.21875 C 14.585938 -22.632812 15.835938 -22.84375 17.171875 -22.84375 Z M 17.171875 -22.84375 "/></g></g></g><g fill="#040640" fill-opacity="1"><g transform="translate(146.189483, 86.230987)"><g><path d="M 18.03125 -0.90625 C 17.375 -0.5 16.566406 -0.1875 15.609375 0.03125 C 14.660156 0.257812 13.644531 0.375 12.5625 0.375 C 9.632812 0.375 7.378906 -0.34375 5.796875 -1.78125 C 4.222656 -3.21875 3.4375 -5.359375 3.4375 -8.203125 L 3.4375 -15.765625 L 0.171875 -15.765625 L 0.171875 -21.640625 L 3.4375 -21.640625 L 3.4375 -27.5 L 11.328125 -27.5 L 11.328125 -21.640625 L 16.46875 -21.640625 L 16.46875 -15.765625 L 11.328125 -15.765625 L 11.328125 -8.296875 C 11.328125 -7.492188 11.539062 -6.863281 11.96875 -6.40625 C 12.394531 -5.945312 12.96875 -5.71875 13.6875 -5.71875 C 14.59375 -5.71875 15.394531 -5.953125 16.09375 -6.421875 Z M 18.03125 -0.90625 "/></g></g></g><g fill="#040640" fill-opacity="1"><g transform="translate(162.715473, 87.218424)"><g><path d="M 14.953125 0.296875 C 12.421875 0.296875 9.992188 -0.109375 7.671875 -0.921875 C 5.347656 -1.734375 3.554688 -2.804688 2.296875 -4.140625 L 3.703125 -6.921875 C 4.929688 -5.679688 6.566406 -4.679688 8.609375 -3.921875 C 10.660156 -3.160156 12.773438 -2.78125 14.953125 -2.78125 C 18.003906 -2.78125 20.289062 -3.335938 21.8125 -4.453125 C 23.34375 -5.578125 24.109375 -7.03125 24.109375 -8.8125 C 24.109375 -10.175781 23.691406 -11.265625 22.859375 -12.078125 C 22.035156 -12.890625 21.023438 -13.515625 19.828125 -13.953125 C 18.628906 -14.390625 16.957031 -14.867188 14.8125 -15.390625 C 12.25 -16.046875 10.203125 -16.671875 8.671875 -17.265625 C 7.140625 -17.867188 5.832031 -18.785156 4.75 -20.015625 C 3.664062 -21.253906 3.125 -22.929688 3.125 -25.046875 C 3.125 -26.765625 3.578125 -28.328125 4.484375 -29.734375 C 5.390625 -31.148438 6.785156 -32.28125 8.671875 -33.125 C 10.554688 -33.96875 12.894531 -34.390625 15.6875 -34.390625 C 17.632812 -34.390625 19.539062 -34.117188 21.40625 -33.578125 C 23.28125 -33.046875 24.898438 -32.3125 26.265625 -31.375 L 25.046875 -28.5 C 23.609375 -29.4375 22.078125 -30.140625 20.453125 -30.609375 C 18.835938 -31.085938 17.25 -31.328125 15.6875 -31.328125 C 12.695312 -31.328125 10.445312 -30.75 8.9375 -29.59375 C 7.425781 -28.4375 6.671875 -26.953125 6.671875 -25.140625 C 6.671875 -23.773438 7.082031 -22.675781 7.90625 -21.84375 C 8.738281 -21.019531 9.78125 -20.390625 11.03125 -19.953125 C 12.28125 -19.515625 13.960938 -19.035156 16.078125 -18.515625 C 18.578125 -17.898438 20.597656 -17.289062 22.140625 -16.6875 C 23.679688 -16.082031 24.988281 -15.171875 26.0625 -13.953125 C 27.132812 -12.734375 27.671875 -11.085938 27.671875 -9.015625 C 27.671875 -7.296875 27.207031 -5.726562 26.28125 -4.3125 C 25.351562 -2.894531 23.929688 -1.769531 22.015625 -0.9375 C 20.097656 -0.113281 17.742188 0.296875 14.953125 0.296875 Z M 14.953125 0.296875 "/></g></g></g><g fill="#040640" fill-opacity="1"><g transform="translate(187.905261, 87.218424)"><g><path d="M 15.4375 0.25 C 12.90625 0.25 10.640625 -0.300781 8.640625 -1.40625 C 6.648438 -2.507812 5.082031 -4.0625 3.9375 -6.0625 C 2.800781 -8.0625 2.234375 -10.3125 2.234375 -12.8125 C 2.234375 -15.3125 2.800781 -17.550781 3.9375 -19.53125 C 5.082031 -21.519531 6.648438 -23.066406 8.640625 -24.171875 C 10.640625 -25.273438 12.90625 -25.828125 15.4375 -25.828125 C 17.644531 -25.828125 19.617188 -25.394531 21.359375 -24.53125 C 23.097656 -23.664062 24.472656 -22.40625 25.484375 -20.75 L 22.890625 -19 C 22.046875 -20.269531 20.972656 -21.21875 19.671875 -21.84375 C 18.378906 -22.476562 16.96875 -22.796875 15.4375 -22.796875 C 13.59375 -22.796875 11.929688 -22.378906 10.453125 -21.546875 C 8.972656 -20.722656 7.816406 -19.546875 6.984375 -18.015625 C 6.160156 -16.492188 5.75 -14.757812 5.75 -12.8125 C 5.75 -10.832031 6.160156 -9.085938 6.984375 -7.578125 C 7.816406 -6.066406 8.972656 -4.894531 10.453125 -4.0625 C 11.929688 -3.238281 13.59375 -2.828125 15.4375 -2.828125 C 16.96875 -2.828125 18.378906 -3.132812 19.671875 -3.75 C 20.972656 -4.363281 22.046875 -5.304688 22.890625 -6.578125 L 25.484375 -4.828125 C 24.472656 -3.171875 23.085938 -1.910156 21.328125 -1.046875 C 19.578125 -0.179688 17.613281 0.25 15.4375 0.25 Z M 15.4375 0.25 "/></g></g></g><g fill="#040640" fill-opacity="1"><g transform="translate(210.561444, 87.218424)"><g><path d="M 13.78125 -25.828125 C 17.132812 -25.828125 19.703125 -24.988281 21.484375 -23.3125 C 23.273438 -21.632812 24.171875 -19.15625 24.171875 -15.875 L 24.171875 0 L 20.859375 0 L 20.859375 -4 C 20.078125 -2.664062 18.929688 -1.625 17.421875 -0.875 C 15.910156 -0.125 14.113281 0.25 12.03125 0.25 C 9.175781 0.25 6.898438 -0.429688 5.203125 -1.796875 C 3.515625 -3.160156 2.671875 -4.960938 2.671875 -7.203125 C 2.671875 -9.378906 3.457031 -11.132812 5.03125 -12.46875 C 6.613281 -13.800781 9.125 -14.46875 12.5625 -14.46875 L 20.703125 -14.46875 L 20.703125 -16.03125 C 20.703125 -18.238281 20.082031 -19.914062 18.84375 -21.0625 C 17.613281 -22.21875 15.816406 -22.796875 13.453125 -22.796875 C 11.828125 -22.796875 10.265625 -22.523438 8.765625 -21.984375 C 7.273438 -21.453125 5.992188 -20.71875 4.921875 -19.78125 L 3.359375 -22.359375 C 4.660156 -23.460938 6.21875 -24.316406 8.03125 -24.921875 C 9.851562 -25.523438 11.769531 -25.828125 13.78125 -25.828125 Z M 12.5625 -2.484375 C 14.519531 -2.484375 16.195312 -2.929688 17.59375 -3.828125 C 18.988281 -4.722656 20.023438 -6.015625 20.703125 -7.703125 L 20.703125 -11.890625 L 12.671875 -11.890625 C 8.285156 -11.890625 6.09375 -10.363281 6.09375 -7.3125 C 6.09375 -5.8125 6.660156 -4.628906 7.796875 -3.765625 C 8.929688 -2.910156 10.519531 -2.484375 12.5625 -2.484375 Z M 12.5625 -2.484375 "/></g></g></g><g fill="#040640" fill-opacity="1"><g transform="translate(234.533143, 87.218424)"><g><path d="M 4.828125 -36.15625 L 8.28125 -36.15625 L 8.28125 0 L 4.828125 0 Z M 4.828125 -36.15625 "/></g></g></g><g fill="#040640" fill-opacity="1"><g transform="translate(242.864753, 87.218424)"><g><path d="M 27.140625 -11.734375 L 5.703125 -11.734375 C 5.898438 -9.078125 6.921875 -6.925781 8.765625 -5.28125 C 10.617188 -3.644531 12.957031 -2.828125 15.78125 -2.828125 C 17.375 -2.828125 18.835938 -3.109375 20.171875 -3.671875 C 21.503906 -4.242188 22.65625 -5.082031 23.625 -6.1875 L 25.578125 -3.953125 C 24.441406 -2.585938 23.019531 -1.546875 21.3125 -0.828125 C 19.601562 -0.109375 17.726562 0.25 15.6875 0.25 C 13.050781 0.25 10.71875 -0.3125 8.6875 -1.4375 C 6.664062 -2.5625 5.082031 -4.113281 3.9375 -6.09375 C 2.800781 -8.070312 2.234375 -10.3125 2.234375 -12.8125 C 2.234375 -15.3125 2.773438 -17.550781 3.859375 -19.53125 C 4.953125 -21.519531 6.445312 -23.066406 8.34375 -24.171875 C 10.25 -25.273438 12.390625 -25.828125 14.765625 -25.828125 C 17.128906 -25.828125 19.253906 -25.273438 21.140625 -24.171875 C 23.023438 -23.066406 24.503906 -21.53125 25.578125 -19.5625 C 26.648438 -17.59375 27.1875 -15.34375 27.1875 -12.8125 Z M 14.765625 -22.84375 C 12.296875 -22.84375 10.222656 -22.054688 8.546875 -20.484375 C 6.878906 -18.910156 5.929688 -16.859375 5.703125 -14.328125 L 23.875 -14.328125 C 23.644531 -16.859375 22.691406 -18.910156 21.015625 -20.484375 C 19.347656 -22.054688 17.265625 -22.84375 14.765625 -22.84375 Z M 14.765625 -22.84375 "/></g></g></g><g fill="#040640" fill-opacity="1"><g transform="translate(40.863616, 127.67299)"><g><path d="M 6.28125 -11.390625 C 7.289062 -11.390625 8.164062 -11.21875 8.90625 -10.875 C 9.644531 -10.539062 10.210938 -10.0625 10.609375 -9.4375 C 11.015625 -8.820312 11.21875 -8.09375 11.21875 -7.25 C 11.21875 -6.414062 11.015625 -5.6875 10.609375 -5.0625 C 10.210938 -4.4375 9.644531 -3.957031 8.90625 -3.625 C 8.164062 -3.300781 7.289062 -3.140625 6.28125 -3.140625 L 3.984375 -3.140625 L 3.984375 0 L 1.34375 0 L 1.34375 -11.390625 Z M 6.125 -5.28125 C 6.914062 -5.28125 7.519531 -5.453125 7.9375 -5.796875 C 8.351562 -6.140625 8.5625 -6.625 8.5625 -7.25 C 8.5625 -7.894531 8.351562 -8.382812 7.9375 -8.71875 C 7.519531 -9.0625 6.914062 -9.234375 6.125 -9.234375 L 3.984375 -9.234375 L 3.984375 -5.28125 Z M 6.125 -5.28125 "/></g></g></g><g fill="#040640" fill-opacity="1"><g transform="translate(53.384933, 127.67299)"><g><path d="M 8.609375 0 L 6.40625 -3.171875 L 3.984375 -3.171875 L 3.984375 0 L 1.34375 0 L 1.34375 -11.390625 L 6.28125 -11.390625 C 7.289062 -11.390625 8.164062 -11.21875 8.90625 -10.875 C 9.644531 -10.539062 10.210938 -10.0625 10.609375 -9.4375 C 11.015625 -8.820312 11.21875 -8.09375 11.21875 -7.25 C 11.21875 -6.40625 11.015625 -5.675781 10.609375 -5.0625 C 10.203125 -4.445312 9.625 -3.976562 8.875 -3.65625 L 11.4375 0 Z M 8.5625 -7.25 C 8.5625 -7.894531 8.351562 -8.382812 7.9375 -8.71875 C 7.519531 -9.0625 6.914062 -9.234375 6.125 -9.234375 L 3.984375 -9.234375 L 3.984375 -5.265625 L 6.125 -5.265625 C 6.914062 -5.265625 7.519531 -5.4375 7.9375 -5.78125 C 8.351562 -6.132812 8.5625 -6.625 8.5625 -7.25 Z M 8.5625 -7.25 "/></g></g></g><g fill="#040640" fill-opacity="1"><g transform="translate(65.955026, 127.67299)"><g><path d="M 10.171875 -2.109375 L 10.171875 0 L 1.34375 0 L 1.34375 -11.390625 L 9.953125 -11.390625 L 9.953125 -9.265625 L 3.96875 -9.265625 L 3.96875 -6.796875 L 9.25 -6.796875 L 9.25 -4.75 L 3.96875 -4.75 L 3.96875 -2.109375 Z M 10.171875 -2.109375 "/></g></g></g><g fill="#040640" fill-opacity="1"><g transform="translate(77.48443, 127.67299)"><g><path d="M 5.09375 0.1875 C 4.1875 0.1875 3.3125 0.0664062 2.46875 -0.171875 C 1.632812 -0.410156 0.960938 -0.726562 0.453125 -1.125 L 1.34375 -3.109375 C 1.832031 -2.742188 2.410156 -2.453125 3.078125 -2.234375 C 3.753906 -2.023438 4.429688 -1.921875 5.109375 -1.921875 C 5.859375 -1.921875 6.410156 -2.03125 6.765625 -2.25 C 7.117188 -2.476562 7.296875 -2.773438 7.296875 -3.140625 C 7.296875 -3.410156 7.191406 -3.632812 6.984375 -3.8125 C 6.773438 -3.988281 6.503906 -4.128906 6.171875 -4.234375 C 5.835938 -4.347656 5.390625 -4.472656 4.828125 -4.609375 C 3.960938 -4.804688 3.253906 -5.007812 2.703125 -5.21875 C 2.148438 -5.425781 1.675781 -5.753906 1.28125 -6.203125 C 0.882812 -6.660156 0.6875 -7.269531 0.6875 -8.03125 C 0.6875 -8.695312 0.863281 -9.296875 1.21875 -9.828125 C 1.570312 -10.367188 2.109375 -10.796875 2.828125 -11.109375 C 3.554688 -11.421875 4.441406 -11.578125 5.484375 -11.578125 C 6.210938 -11.578125 6.921875 -11.488281 7.609375 -11.3125 C 8.304688 -11.144531 8.914062 -10.898438 9.4375 -10.578125 L 8.625 -8.578125 C 7.570312 -9.171875 6.519531 -9.46875 5.46875 -9.46875 C 4.726562 -9.46875 4.179688 -9.347656 3.828125 -9.109375 C 3.472656 -8.867188 3.296875 -8.554688 3.296875 -8.171875 C 3.296875 -7.773438 3.5 -7.484375 3.90625 -7.296875 C 4.3125 -7.109375 4.9375 -6.921875 5.78125 -6.734375 C 6.644531 -6.523438 7.351562 -6.316406 7.90625 -6.109375 C 8.457031 -5.910156 8.929688 -5.585938 9.328125 -5.140625 C 9.722656 -4.691406 9.921875 -4.085938 9.921875 -3.328125 C 9.921875 -2.679688 9.738281 -2.085938 9.375 -1.546875 C 9.007812 -1.015625 8.460938 -0.59375 7.734375 -0.28125 C 7.015625 0.03125 6.132812 0.1875 5.09375 0.1875 Z M 5.09375 0.1875 "/></g></g></g><g fill="#040640" fill-opacity="1"><g transform="translate(88.477232, 127.67299)"><g><path d="M 5.09375 0.1875 C 4.1875 0.1875 3.3125 0.0664062 2.46875 -0.171875 C 1.632812 -0.410156 0.960938 -0.726562 0.453125 -1.125 L 1.34375 -3.109375 C 1.832031 -2.742188 2.410156 -2.453125 3.078125 -2.234375 C 3.753906 -2.023438 4.429688 -1.921875 5.109375 -1.921875 C 5.859375 -1.921875 6.410156 -2.03125 6.765625 -2.25 C 7.117188 -2.476562 7.296875 -2.773438 7.296875 -3.140625 C 7.296875 -3.410156 7.191406 -3.632812 6.984375 -3.8125 C 6.773438 -3.988281 6.503906 -4.128906 6.171875 -4.234375 C 5.835938 -4.347656 5.390625 -4.472656 4.828125 -4.609375 C 3.960938 -4.804688 3.253906 -5.007812 2.703125 -5.21875 C 2.148438 -5.425781 1.675781 -5.753906 1.28125 -6.203125 C 0.882812 -6.660156 0.6875 -7.269531 0.6875 -8.03125 C 0.6875 -8.695312 0.863281 -9.296875 1.21875 -9.828125 C 1.570312 -10.367188 2.109375 -10.796875 2.828125 -11.109375 C 3.554688 -11.421875 4.441406 -11.578125 5.484375 -11.578125 C 6.210938 -11.578125 6.921875 -11.488281 7.609375 -11.3125 C 8.304688 -11.144531 8.914062 -10.898438 9.4375 -10.578125 L 8.625 -8.578125 C 7.570312 -9.171875 6.519531 -9.46875 5.46875 -9.46875 C 4.726562 -9.46875 4.179688 -9.347656 3.828125 -9.109375 C 3.472656 -8.867188 3.296875 -8.554688 3.296875 -8.171875 C 3.296875 -7.773438 3.5 -7.484375 3.90625 -7.296875 C 4.3125 -7.109375 4.9375 -6.921875 5.78125 -6.734375 C 6.644531 -6.523438 7.351562 -6.316406 7.90625 -6.109375 C 8.457031 -5.910156 8.929688 -5.585938 9.328125 -5.140625 C 9.722656 -4.691406 9.921875 -4.085938 9.921875 -3.328125 C 9.921875 -2.679688 9.738281 -2.085938 9.375 -1.546875 C 9.007812 -1.015625 8.460938 -0.59375 7.734375 -0.28125 C 7.015625 0.03125 6.132812 0.1875 5.09375 0.1875 Z M 5.09375 0.1875 "/></g></g></g><g fill="#040640" fill-opacity="1"><g transform="translate(99.470034, 127.67299)"><g><path d="M 6.40625 0.1875 C 4.78125 0.1875 3.515625 -0.257812 2.609375 -1.15625 C 1.703125 -2.050781 1.25 -3.335938 1.25 -5.015625 L 1.25 -11.390625 L 3.890625 -11.390625 L 3.890625 -5.109375 C 3.890625 -3.066406 4.734375 -2.046875 6.421875 -2.046875 C 7.242188 -2.046875 7.875 -2.289062 8.3125 -2.78125 C 8.75 -3.28125 8.96875 -4.054688 8.96875 -5.109375 L 8.96875 -11.390625 L 11.5625 -11.390625 L 11.5625 -5.015625 C 11.5625 -3.335938 11.109375 -2.050781 10.203125 -1.15625 C 9.296875 -0.257812 8.03125 0.1875 6.40625 0.1875 Z M 6.40625 0.1875 "/></g></g></g><g fill="#040640" fill-opacity="1"><g transform="translate(112.901953, 127.67299)"><g><path d="M 8.609375 0 L 6.40625 -3.171875 L 3.984375 -3.171875 L 3.984375 0 L 1.34375 0 L 1.34375 -11.390625 L 6.28125 -11.390625 C 7.289062 -11.390625 8.164062 -11.21875 8.90625 -10.875 C 9.644531 -10.539062 10.210938 -10.0625 10.609375 -9.4375 C 11.015625 -8.820312 11.21875 -8.09375 11.21875 -7.25 C 11.21875 -6.40625 11.015625 -5.675781 10.609375 -5.0625 C 10.203125 -4.445312 9.625 -3.976562 8.875 -3.65625 L 11.4375 0 Z M 8.5625 -7.25 C 8.5625 -7.894531 8.351562 -8.382812 7.9375 -8.71875 C 7.519531 -9.0625 6.914062 -9.234375 6.125 -9.234375 L 3.984375 -9.234375 L 3.984375 -5.265625 L 6.125 -5.265625 C 6.914062 -5.265625 7.519531 -5.4375 7.9375 -5.78125 C 8.351562 -6.132812 8.5625 -6.625 8.5625 -7.25 Z M 8.5625 -7.25 "/></g></g></g><g fill="#040640" fill-opacity="1"><g transform="translate(125.472047, 127.67299)"><g><path d="M 10.171875 -2.109375 L 10.171875 0 L 1.34375 0 L 1.34375 -11.390625 L 9.953125 -11.390625 L 9.953125 -9.265625 L 3.96875 -9.265625 L 3.96875 -6.796875 L 9.25 -6.796875 L 9.25 -4.75 L 3.96875 -4.75 L 3.96875 -2.109375 Z M 10.171875 -2.109375 "/></g></g></g><g fill="#040640" fill-opacity="1"><g transform="translate(142.221679, 127.67299)"><g><path d="M 10.09375 0.1875 L 8.734375 -1.078125 C 7.648438 -0.234375 6.378906 0.1875 4.921875 0.1875 C 4.097656 0.1875 3.351562 0.0546875 2.6875 -0.203125 C 2.03125 -0.472656 1.515625 -0.84375 1.140625 -1.3125 C 0.765625 -1.789062 0.578125 -2.328125 0.578125 -2.921875 C 0.578125 -3.628906 0.773438 -4.25 1.171875 -4.78125 C 1.566406 -5.320312 2.207031 -5.835938 3.09375 -6.328125 C 2.675781 -6.753906 2.375 -7.15625 2.1875 -7.53125 C 2.007812 -7.914062 1.921875 -8.316406 1.921875 -8.734375 C 1.921875 -9.285156 2.066406 -9.769531 2.359375 -10.1875 C 2.648438 -10.613281 3.0625 -10.941406 3.59375 -11.171875 C 4.132812 -11.410156 4.757812 -11.53125 5.46875 -11.53125 C 6.457031 -11.53125 7.25 -11.296875 7.84375 -10.828125 C 8.4375 -10.359375 8.734375 -9.71875 8.734375 -8.90625 C 8.734375 -8.320312 8.554688 -7.800781 8.203125 -7.34375 C 7.847656 -6.894531 7.28125 -6.457031 6.5 -6.03125 L 8.59375 -4.09375 C 8.84375 -4.613281 9.03125 -5.207031 9.15625 -5.875 L 11.1875 -5.234375 C 10.96875 -4.222656 10.625 -3.363281 10.15625 -2.65625 L 11.484375 -1.421875 Z M 5.46875 -9.8125 C 5.082031 -9.8125 4.78125 -9.710938 4.5625 -9.515625 C 4.34375 -9.316406 4.234375 -9.066406 4.234375 -8.765625 C 4.234375 -8.535156 4.289062 -8.320312 4.40625 -8.125 C 4.53125 -7.925781 4.765625 -7.65625 5.109375 -7.3125 C 5.660156 -7.613281 6.046875 -7.878906 6.265625 -8.109375 C 6.484375 -8.335938 6.59375 -8.585938 6.59375 -8.859375 C 6.59375 -9.140625 6.492188 -9.367188 6.296875 -9.546875 C 6.097656 -9.722656 5.820312 -9.8125 5.46875 -9.8125 Z M 5.109375 -1.796875 C 5.898438 -1.796875 6.609375 -2.015625 7.234375 -2.453125 L 4.484375 -5.03125 C 3.972656 -4.738281 3.609375 -4.445312 3.390625 -4.15625 C 3.179688 -3.875 3.078125 -3.554688 3.078125 -3.203125 C 3.078125 -2.773438 3.257812 -2.429688 3.625 -2.171875 C 4 -1.921875 4.492188 -1.796875 5.109375 -1.796875 Z M 5.109375 -1.796875 "/></g></g></g><g fill="#040640" fill-opacity="1"><g transform="translate(154.677947, 127.67299)"><g/></g></g><g fill="#040640" fill-opacity="1"><g transform="translate(159.898177, 127.67299)"><g><path d="M 5.09375 0.1875 C 4.1875 0.1875 3.3125 0.0664062 2.46875 -0.171875 C 1.632812 -0.410156 0.960938 -0.726562 0.453125 -1.125 L 1.34375 -3.109375 C 1.832031 -2.742188 2.410156 -2.453125 3.078125 -2.234375 C 3.753906 -2.023438 4.429688 -1.921875 5.109375 -1.921875 C 5.859375 -1.921875 6.410156 -2.03125 6.765625 -2.25 C 7.117188 -2.476562 7.296875 -2.773438 7.296875 -3.140625 C 7.296875 -3.410156 7.191406 -3.632812 6.984375 -3.8125 C 6.773438 -3.988281 6.503906 -4.128906 6.171875 -4.234375 C 5.835938 -4.347656 5.390625 -4.472656 4.828125 -4.609375 C 3.960938 -4.804688 3.253906 -5.007812 2.703125 -5.21875 C 2.148438 -5.425781 1.675781 -5.753906 1.28125 -6.203125 C 0.882812 -6.660156 0.6875 -7.269531 0.6875 -8.03125 C 0.6875 -8.695312 0.863281 -9.296875 1.21875 -9.828125 C 1.570312 -10.367188 2.109375 -10.796875 2.828125 -11.109375 C 3.554688 -11.421875 4.441406 -11.578125 5.484375 -11.578125 C 6.210938 -11.578125 6.921875 -11.488281 7.609375 -11.3125 C 8.304688 -11.144531 8.914062 -10.898438 9.4375 -10.578125 L 8.625 -8.578125 C 7.570312 -9.171875 6.519531 -9.46875 5.46875 -9.46875 C 4.726562 -9.46875 4.179688 -9.347656 3.828125 -9.109375 C 3.472656 -8.867188 3.296875 -8.554688 3.296875 -8.171875 C 3.296875 -7.773438 3.5 -7.484375 3.90625 -7.296875 C 4.3125 -7.109375 4.9375 -6.921875 5.78125 -6.734375 C 6.644531 -6.523438 7.351562 -6.316406 7.90625 -6.109375 C 8.457031 -5.910156 8.929688 -5.585938 9.328125 -5.140625 C 9.722656 -4.691406 9.921875 -4.085938 9.921875 -3.328125 C 9.921875 -2.679688 9.738281 -2.085938 9.375 -1.546875 C 9.007812 -1.015625 8.460938 -0.59375 7.734375 -0.28125 C 7.015625 0.03125 6.132812 0.1875 5.09375 0.1875 Z M 5.09375 0.1875 "/></g></g></g><g fill="#040640" fill-opacity="1"><g transform="translate(170.890973, 127.67299)"><g><path d="M 6.859375 0.1875 C 5.679688 0.1875 4.617188 -0.0625 3.671875 -0.5625 C 2.722656 -1.070312 1.976562 -1.773438 1.4375 -2.671875 C 0.90625 -3.566406 0.640625 -4.570312 0.640625 -5.6875 C 0.640625 -6.8125 0.90625 -7.816406 1.4375 -8.703125 C 1.976562 -9.597656 2.722656 -10.300781 3.671875 -10.8125 C 4.617188 -11.320312 5.679688 -11.578125 6.859375 -11.578125 C 8.046875 -11.578125 9.109375 -11.320312 10.046875 -10.8125 C 10.992188 -10.300781 11.738281 -9.597656 12.28125 -8.703125 C 12.820312 -7.816406 13.09375 -6.8125 13.09375 -5.6875 C 13.09375 -4.570312 12.820312 -3.566406 12.28125 -2.671875 C 11.738281 -1.773438 10.992188 -1.070312 10.046875 -0.5625 C 9.109375 -0.0625 8.046875 0.1875 6.859375 0.1875 Z M 6.859375 -2.046875 C 7.535156 -2.046875 8.144531 -2.203125 8.6875 -2.515625 C 9.226562 -2.828125 9.648438 -3.257812 9.953125 -3.8125 C 10.265625 -4.363281 10.421875 -4.988281 10.421875 -5.6875 C 10.421875 -6.394531 10.265625 -7.023438 9.953125 -7.578125 C 9.648438 -8.128906 9.226562 -8.5625 8.6875 -8.875 C 8.144531 -9.1875 7.535156 -9.34375 6.859375 -9.34375 C 6.191406 -9.34375 5.585938 -9.1875 5.046875 -8.875 C 4.503906 -8.5625 4.078125 -8.128906 3.765625 -7.578125 C 3.453125 -7.023438 3.296875 -6.394531 3.296875 -5.6875 C 3.296875 -4.988281 3.453125 -4.363281 3.765625 -3.8125 C 4.078125 -3.257812 4.503906 -2.828125 5.046875 -2.515625 C 5.585938 -2.203125 6.191406 -2.046875 6.859375 -2.046875 Z M 6.859375 -2.046875 "/></g></g></g><g fill="#040640" fill-opacity="1"><g transform="translate(185.233486, 127.67299)"><g><path d="M 3.984375 -9.265625 L 3.984375 -6.265625 L 9.25 -6.265625 L 9.25 -4.140625 L 3.984375 -4.140625 L 3.984375 0 L 1.34375 0 L 1.34375 -11.390625 L 9.953125 -11.390625 L 9.953125 -9.265625 Z M 3.984375 -9.265625 "/></g></g></g><g fill="#040640" fill-opacity="1"><g transform="translate(196.242549, 127.67299)"><g><path d="M 3.703125 -9.234375 L 0.0625 -9.234375 L 0.0625 -11.390625 L 9.984375 -11.390625 L 9.984375 -9.234375 L 6.34375 -9.234375 L 6.34375 0 L 3.703125 0 Z M 3.703125 -9.234375 "/></g></g></g><g fill="#040640" fill-opacity="1"><g transform="translate(206.910127, 127.67299)"><g><path d="M 18.5625 -11.390625 L 14.828125 0 L 12 0 L 9.5 -7.703125 L 6.90625 0 L 4.09375 0 L 0.359375 -11.390625 L 3.09375 -11.390625 L 5.65625 -3.390625 L 8.34375 -11.390625 L 10.78125 -11.390625 L 13.390625 -3.3125 L 16.03125 -11.390625 Z M 18.5625 -11.390625 "/></g></g></g><g fill="#040640" fill-opacity="1"><g transform="translate(226.439813, 127.67299)"><g><path d="M 8.84375 -2.4375 L 3.5625 -2.4375 L 2.546875 0 L -0.140625 0 L 4.921875 -11.390625 L 7.53125 -11.390625 L 12.625 0 L 9.859375 0 Z M 8.015625 -4.4375 L 6.21875 -8.796875 L 4.40625 -4.4375 Z M 8.015625 -4.4375 "/></g></g></g><g fill="#040640" fill-opacity="1"><g transform="translate(239.513997, 127.67299)"><g><path d="M 5.09375 0.1875 C 4.1875 0.1875 3.3125 0.0664062 2.46875 -0.171875 C 1.632812 -0.410156 0.960938 -0.726562 0.453125 -1.125 L 1.34375 -3.109375 C 1.832031 -2.742188 2.410156 -2.453125 3.078125 -2.234375 C 3.753906 -2.023438 4.429688 -1.921875 5.109375 -1.921875 C 5.859375 -1.921875 6.410156 -2.03125 6.765625 -2.25 C 7.117188 -2.476562 7.296875 -2.773438 7.296875 -3.140625 C 7.296875 -3.410156 7.191406 -3.632812 6.984375 -3.8125 C 6.773438 -3.988281 6.503906 -4.128906 6.171875 -4.234375 C 5.835938 -4.347656 5.390625 -4.472656 4.828125 -4.609375 C 3.960938 -4.804688 3.253906 -5.007812 2.703125 -5.21875 C 2.148438 -5.425781 1.675781 -5.753906 1.28125 -6.203125 C 0.882812 -6.660156 0.6875 -7.269531 0.6875 -8.03125 C 0.6875 -8.695312 0.863281 -9.296875 1.21875 -9.828125 C 1.570312 -10.367188 2.109375 -10.796875 2.828125 -11.109375 C 3.554688 -11.421875 4.441406 -11.578125 5.484375 -11.578125 C 6.210938 -11.578125 6.921875 -11.488281 7.609375 -11.3125 C 8.304688 -11.144531 8.914062 -10.898438 9.4375 -10.578125 L 8.625 -8.578125 C 7.570312 -9.171875 6.519531 -9.46875 5.46875 -9.46875 C 4.726562 -9.46875 4.179688 -9.347656 3.828125 -9.109375 C 3.472656 -8.867188 3.296875 -8.554688 3.296875 -8.171875 C 3.296875 -7.773438 3.5 -7.484375 3.90625 -7.296875 C 4.3125 -7.109375 4.9375 -6.921875 5.78125 -6.734375 C 6.644531 -6.523438 7.351562 -6.316406 7.90625 -6.109375 C 8.457031 -5.910156 8.929688 -5.585938 9.328125 -5.140625 C 9.722656 -4.691406 9.921875 -4.085938 9.921875 -3.328125 C 9.921875 -2.679688 9.738281 -2.085938 9.375 -1.546875 C 9.007812 -1.015625 8.460938 -0.59375 7.734375 -0.28125 C 7.015625 0.03125 6.132812 0.1875 5.09375 0.1875 Z M 5.09375 0.1875 "/></g></g></g><g fill="#040640" fill-opacity="1"><g transform="translate(250.506793, 127.67299)"><g><path d="M 11.796875 -11.390625 L 11.796875 0 L 9.15625 0 L 9.15625 -4.671875 L 3.984375 -4.671875 L 3.984375 0 L 1.34375 0 L 1.34375 -11.390625 L 3.984375 -11.390625 L 3.984375 -6.890625 L 9.15625 -6.890625 L 9.15625 -11.390625 Z M 11.796875 -11.390625 "/></g></g></g><g fill="#040640" fill-opacity="1"><g transform="translate(240.786979, 103.221527)"><g><path d="M 5.4375 -4.578125 L 5.4375 -0.828125 C 5.4375 0.015625 5.203125 0.648438 4.734375 1.078125 C 4.273438 1.503906 3.613281 1.71875 2.75 1.71875 C 2.300781 1.71875 1.878906 1.664062 1.484375 1.5625 C 1.085938 1.457031 0.753906 1.304688 0.484375 1.109375 L 1.0625 -0.015625 C 1.25 0.140625 1.484375 0.257812 1.765625 0.34375 C 2.046875 0.4375 2.328125 0.484375 2.609375 0.484375 C 3.023438 0.484375 3.332031 0.390625 3.53125 0.203125 C 3.726562 0.015625 3.828125 -0.257812 3.828125 -0.625 L 3.828125 -0.78125 C 3.515625 -0.414062 3.0625 -0.234375 2.46875 -0.234375 C 2.0625 -0.234375 1.6875 -0.320312 1.34375 -0.5 C 1 -0.6875 0.726562 -0.945312 0.53125 -1.28125 C 0.332031 -1.613281 0.234375 -2.003906 0.234375 -2.453125 C 0.234375 -2.878906 0.332031 -3.257812 0.53125 -3.59375 C 0.726562 -3.925781 1 -4.1875 1.34375 -4.375 C 1.6875 -4.5625 2.0625 -4.65625 2.46875 -4.65625 C 3.125 -4.65625 3.601562 -4.441406 3.90625 -4.015625 L 3.90625 -4.578125 Z M 2.859375 -1.515625 C 3.140625 -1.515625 3.375 -1.597656 3.5625 -1.765625 C 3.75 -1.941406 3.84375 -2.171875 3.84375 -2.453125 C 3.84375 -2.722656 3.75 -2.941406 3.5625 -3.109375 C 3.382812 -3.285156 3.148438 -3.375 2.859375 -3.375 C 2.554688 -3.375 2.3125 -3.285156 2.125 -3.109375 C 1.9375 -2.941406 1.84375 -2.722656 1.84375 -2.453125 C 1.84375 -2.171875 1.9375 -1.941406 2.125 -1.765625 C 2.320312 -1.597656 2.566406 -1.515625 2.859375 -1.515625 Z M 2.859375 -1.515625 "/></g></g></g><g fill="#040640" fill-opacity="1"><g transform="translate(246.445403, 103.221527)"><g><path d="M 2.046875 -4.03125 C 2.203125 -4.238281 2.410156 -4.394531 2.671875 -4.5 C 2.941406 -4.601562 3.242188 -4.65625 3.578125 -4.65625 L 3.578125 -3.203125 C 3.429688 -3.222656 3.3125 -3.234375 3.21875 -3.234375 C 2.875 -3.234375 2.601562 -3.140625 2.40625 -2.953125 C 2.21875 -2.765625 2.125 -2.476562 2.125 -2.09375 L 2.125 0 L 0.515625 0 L 0.515625 -4.578125 L 2.046875 -4.578125 Z M 2.046875 -4.03125 "/></g></g></g><g fill="#040640" fill-opacity="1"><g transform="translate(249.894412, 103.221527)"><g><path d="M 2.8125 0.078125 C 2.320312 0.078125 1.878906 -0.0195312 1.484375 -0.21875 C 1.085938 -0.425781 0.78125 -0.707031 0.5625 -1.0625 C 0.34375 -1.425781 0.234375 -1.835938 0.234375 -2.296875 C 0.234375 -2.742188 0.34375 -3.144531 0.5625 -3.5 C 0.78125 -3.863281 1.082031 -4.144531 1.46875 -4.34375 C 1.863281 -4.550781 2.3125 -4.65625 2.8125 -4.65625 C 3.300781 -4.65625 3.742188 -4.550781 4.140625 -4.34375 C 4.535156 -4.144531 4.84375 -3.867188 5.0625 -3.515625 C 5.28125 -3.160156 5.390625 -2.753906 5.390625 -2.296875 C 5.390625 -1.835938 5.28125 -1.425781 5.0625 -1.0625 C 4.84375 -0.707031 4.535156 -0.425781 4.140625 -0.21875 C 3.742188 -0.0195312 3.300781 0.078125 2.8125 0.078125 Z M 2.8125 -1.203125 C 3.09375 -1.203125 3.320312 -1.296875 3.5 -1.484375 C 3.675781 -1.679688 3.765625 -1.953125 3.765625 -2.296875 C 3.765625 -2.628906 3.675781 -2.890625 3.5 -3.078125 C 3.320312 -3.273438 3.09375 -3.375 2.8125 -3.375 C 2.53125 -3.375 2.296875 -3.273438 2.109375 -3.078125 C 1.929688 -2.890625 1.84375 -2.628906 1.84375 -2.296875 C 1.84375 -1.953125 1.929688 -1.679688 2.109375 -1.484375 C 2.296875 -1.296875 2.53125 -1.203125 2.8125 -1.203125 Z M 2.8125 -1.203125 "/></g></g></g><g fill="#040640" fill-opacity="1"><g transform="translate(255.223953, 103.221527)"><g><path d="M 5.328125 -4.578125 L 5.328125 0 L 3.796875 0 L 3.796875 -0.484375 C 3.628906 -0.296875 3.425781 -0.15625 3.1875 -0.0625 C 2.945312 0.03125 2.695312 0.078125 2.4375 0.078125 C 1.84375 0.078125 1.367188 -0.09375 1.015625 -0.4375 C 0.671875 -0.789062 0.5 -1.316406 0.5 -2.015625 L 0.5 -4.578125 L 2.09375 -4.578125 L 2.09375 -2.28125 C 2.09375 -1.9375 2.15625 -1.6875 2.28125 -1.53125 C 2.414062 -1.375 2.609375 -1.296875 2.859375 -1.296875 C 3.109375 -1.296875 3.3125 -1.382812 3.46875 -1.5625 C 3.632812 -1.738281 3.71875 -2.007812 3.71875 -2.375 L 3.71875 -4.578125 Z M 5.328125 -4.578125 "/></g></g></g><g fill="#040640" fill-opacity="1"><g transform="translate(260.772748, 103.221527)"><g><path d="M 3.390625 -4.65625 C 3.804688 -4.65625 4.179688 -4.554688 4.515625 -4.359375 C 4.859375 -4.160156 5.128906 -3.882812 5.328125 -3.53125 C 5.535156 -3.175781 5.640625 -2.757812 5.640625 -2.28125 C 5.640625 -1.8125 5.535156 -1.394531 5.328125 -1.03125 C 5.128906 -0.675781 4.859375 -0.398438 4.515625 -0.203125 C 4.179688 -0.015625 3.804688 0.078125 3.390625 0.078125 C 2.859375 0.078125 2.4375 -0.0820312 2.125 -0.40625 L 2.125 1.640625 L 0.515625 1.640625 L 0.515625 -4.578125 L 2.046875 -4.578125 L 2.046875 -4.125 C 2.335938 -4.476562 2.785156 -4.65625 3.390625 -4.65625 Z M 3.046875 -1.203125 C 3.328125 -1.203125 3.554688 -1.296875 3.734375 -1.484375 C 3.921875 -1.679688 4.015625 -1.945312 4.015625 -2.28125 C 4.015625 -2.625 3.921875 -2.890625 3.734375 -3.078125 C 3.554688 -3.273438 3.328125 -3.375 3.046875 -3.375 C 2.765625 -3.375 2.535156 -3.273438 2.359375 -3.078125 C 2.179688 -2.890625 2.09375 -2.625 2.09375 -2.28125 C 2.09375 -1.945312 2.179688 -1.679688 2.359375 -1.484375 C 2.535156 -1.296875 2.765625 -1.203125 3.046875 -1.203125 Z M 3.046875 -1.203125 "/></g></g></g><g fill="#040640" fill-opacity="1"><g transform="translate(266.346844, 103.221527)"><g><path d="M 1.1875 0.078125 C 0.914062 0.078125 0.6875 -0.0078125 0.5 -0.1875 C 0.320312 -0.375 0.234375 -0.601562 0.234375 -0.875 C 0.234375 -1.15625 0.320312 -1.382812 0.5 -1.5625 C 0.6875 -1.738281 0.914062 -1.828125 1.1875 -1.828125 C 1.46875 -1.828125 1.695312 -1.738281 1.875 -1.5625 C 2.0625 -1.382812 2.15625 -1.15625 2.15625 -0.875 C 2.15625 -0.601562 2.0625 -0.375 1.875 -0.1875 C 1.695312 -0.0078125 1.46875 0.078125 1.1875 0.078125 Z M 1.1875 0.078125 "/></g></g></g></svg>